<svg fill="none" viewBox="0 0 126 22"><path fill="#DC7000" d="M14.674 7.283a3.27 3.27 0 0 0-1.363-1.247c-.56-.29-1.228-.435-2.001-.435-1.43 0-2.562.464-3.393 1.392-.812.928-1.218 2.175-1.218 3.741 0 1.76.435 3.103 1.305 4.031.89.909 2.175 1.363 3.857 1.363 1.991 0 3.412-.899 4.263-2.697h-5.713V9.342h10.614v5.51c-.445 1.083-1.102 2.098-1.972 3.045-.85.947-1.933 1.73-3.248 2.349-1.315.6-2.813.899-4.495.899-2.05 0-3.867-.435-5.452-1.305a9.425 9.425 0 0 1-3.654-3.683c-.85-1.585-1.276-3.393-1.276-5.423 0-2.01.425-3.799 1.276-5.365a9.178 9.178 0 0 1 3.654-3.683C7.424.796 9.232.352 11.281.352c2.571 0 4.698.619 6.38 1.856 1.682 1.237 2.726 2.929 3.132 5.075h-6.119Z"/><path fill="#fff" d="M36.622 7.283a3.27 3.27 0 0 0-1.363-1.247c-.56-.29-1.227-.435-2-.435-1.431 0-2.562.464-3.394 1.392-.812.928-1.218 2.175-1.218 3.741 0 1.76.435 3.103 1.305 4.031.89.909 2.175 1.363 3.857 1.363 1.992 0 3.413-.899 4.263-2.697H32.36V9.342h10.614v5.51c-.444 1.083-1.102 2.098-1.972 3.045-.85.947-1.933 1.73-3.248 2.349-1.314.6-2.813.899-4.495.899-2.05 0-3.866-.435-5.452-1.305a9.425 9.425 0 0 1-3.654-3.683c-.85-1.585-1.276-3.393-1.276-5.423 0-2.01.426-3.799 1.276-5.365a9.178 9.178 0 0 1 3.654-3.683C29.372.796 31.18.352 33.23.352c2.572 0 4.698.619 6.38 1.856 1.682 1.237 2.726 2.929 3.132 5.075h-6.119Zm21.833 10.382h-7.25L50.103 21h-5.974L51.582.555h6.553L65.56 21h-6.004l-1.101-3.335Zm-1.422-4.35L54.83 6.703l-2.175 6.612h4.378ZM91.28.555V21h-5.684V9.719L81.738 21h-4.756L73.096 9.632V21h-5.684V.555h6.873l5.133 13.282L84.435.555h6.844Zm8.92 4.553v3.335h6.525v4.321h-6.525v3.683h7.395V21h-13.08V.555h13.08v4.553h-7.395Zm17.917 16.095c-2.378 0-4.33-.56-5.858-1.682-1.527-1.14-2.349-2.765-2.465-4.872h6.061c.058.715.271 1.237.638 1.566.368.329.841.493 1.421.493.522 0 .948-.126 1.276-.377.348-.27.522-.638.522-1.102 0-.6-.28-1.063-.841-1.392-.56-.329-1.469-.696-2.726-1.102-1.334-.445-2.416-.87-3.248-1.276-.812-.425-1.527-1.034-2.146-1.827-.599-.812-.899-1.866-.899-3.161 0-1.315.329-2.436.986-3.364.658-.947 1.566-1.663 2.726-2.146 1.16-.483 2.475-.725 3.944-.725 2.378 0 4.273.56 5.684 1.682 1.431 1.102 2.195 2.658 2.291 4.669h-6.177c-.019-.619-.212-1.083-.58-1.392-.348-.31-.802-.464-1.363-.464-.425 0-.773.126-1.044.377-.27.251-.406.609-.406 1.073 0 .387.145.725.435 1.015.31.27.687.512 1.131.725.445.193 1.102.445 1.972.754 1.296.445 2.359.89 3.19 1.334a6.148 6.148 0 0 1 2.175 1.827c.619.773.928 1.76.928 2.958 0 1.218-.309 2.31-.928 3.277-.599.967-1.479 1.73-2.639 2.291-1.14.56-2.494.841-4.06.841Z"/></svg>